<svg width="212" height="37" viewBox="0 0 212 37" fill="none" xmlns="http://www.w3.org/2000/svg">
<path d="M12.4 10.896C13.904 10.896 15.296 11.072 16.576 11.424C17.888 11.744 18.928 12.192 19.696 12.768C20.496 13.344 20.896 13.968 20.896 14.64C20.896 14.992 20.768 15.312 20.512 15.6C20.288 15.888 20 16.032 19.648 16.032C19.328 16.032 19.056 15.968 18.832 15.84C18.64 15.712 18.416 15.52 18.16 15.264C17.744 14.848 17.344 14.544 16.96 14.352C16.48 14.128 15.84 13.952 15.04 13.824C14.272 13.664 13.44 13.584 12.544 13.584C10.784 13.584 9.168 14.032 7.696 14.928C6.256 15.824 5.12 17.04 4.288 18.576C3.456 20.112 3.04 21.808 3.04 23.664C3.04 25.584 3.44 27.312 4.24 28.848C5.04 30.384 6.144 31.6 7.552 32.496C8.992 33.36 10.624 33.792 12.448 33.792C13.6 33.792 14.512 33.696 15.184 33.504C15.888 33.312 16.576 33.04 17.248 32.688C17.472 32.56 17.856 32.272 18.4 31.824C18.656 31.6 18.88 31.44 19.072 31.344C19.264 31.216 19.472 31.152 19.696 31.152C20.08 31.152 20.384 31.28 20.608 31.536C20.832 31.76 20.944 32.064 20.944 32.448C20.944 32.992 20.56 33.584 19.792 34.224C19.024 34.832 17.968 35.36 16.624 35.808C15.28 36.256 13.792 36.48 12.16 36.48C9.824 36.48 7.744 35.936 5.92 34.848C4.096 33.728 2.672 32.192 1.648 30.24C0.656 28.288 0.16 26.096 0.16 23.664C0.16 21.328 0.672 19.2 1.696 17.28C2.72 15.328 4.16 13.776 6.016 12.624C7.872 11.472 10 10.896 12.4 10.896ZM29.6163 34.56C29.6163 34.976 29.4723 35.328 29.1843 35.616C28.9283 35.872 28.5923 36 28.1763 36C27.7603 36 27.4083 35.872 27.1203 35.616C26.8643 35.328 26.7363 34.976 26.7363 34.56V1.92C26.7363 1.504 26.8643 1.168 27.1203 0.912C27.4083 0.624 27.7603 0.48 28.1763 0.48C28.5923 0.48 28.9283 0.624 29.1843 0.912C29.4723 1.168 29.6163 1.504 29.6163 1.92V34.56ZM59.698 23.712C59.698 26.112 59.17 28.288 58.114 30.24C57.058 32.192 55.602 33.728 53.746 34.848C51.89 35.936 49.826 36.48 47.554 36.48C45.282 36.48 43.218 35.936 41.362 34.848C39.506 33.728 38.05 32.192 36.994 30.24C35.938 28.288 35.41 26.112 35.41 23.712C35.41 21.312 35.938 19.136 36.994 17.184C38.05 15.232 39.506 13.696 41.362 12.576C43.218 11.456 45.282 10.896 47.554 10.896C49.826 10.896 51.89 11.456 53.746 12.576C55.602 13.696 57.058 15.232 58.114 17.184C59.17 19.136 59.698 21.312 59.698 23.712ZM56.818 23.712C56.818 21.792 56.418 20.064 55.618 18.528C54.818 16.992 53.698 15.792 52.258 14.928C50.85 14.032 49.282 13.584 47.554 13.584C45.826 13.584 44.258 14.032 42.85 14.928C41.442 15.792 40.322 16.992 39.49 18.528C38.69 20.064 38.29 21.792 38.29 23.712C38.29 25.6 38.69 27.312 39.49 28.848C40.322 30.384 41.442 31.6 42.85 32.496C44.258 33.36 45.826 33.792 47.554 33.792C49.282 33.792 50.85 33.36 52.258 32.496C53.698 31.632 54.818 30.432 55.618 28.896C56.418 27.36 56.818 25.632 56.818 23.712ZM83.9249 11.616C84.3409 11.616 84.6769 11.76 84.9329 12.048C85.2209 12.304 85.3649 12.64 85.3649 13.056V26.592C85.3649 29.728 84.4849 32.144 82.7249 33.84C80.9649 35.504 78.5329 36.336 75.4289 36.336C72.3569 36.336 69.9409 35.504 68.1809 33.84C66.4529 32.144 65.5889 29.728 65.5889 26.592V13.056C65.5889 12.64 65.7169 12.304 65.9729 12.048C66.2609 11.76 66.6129 11.616 67.0289 11.616C67.4449 11.616 67.7809 11.76 68.0369 12.048C68.3249 12.304 68.4689 12.64 68.4689 13.056V26.592C68.4689 28.896 69.0769 30.656 70.2929 31.872C71.5089 33.056 73.2209 33.648 75.4289 33.648C77.6689 33.648 79.3969 33.056 80.6129 31.872C81.8609 30.656 82.4849 28.896 82.4849 26.592V13.056C82.4849 12.64 82.6129 12.304 82.8689 12.048C83.1569 11.76 83.5089 11.616 83.9249 11.616ZM112.837 0.48C113.253 0.48 113.589 0.624 113.845 0.912C114.133 1.168 114.277 1.504 114.277 1.92V34.56C114.277 34.976 114.133 35.328 113.845 35.616C113.589 35.872 113.253 36 112.837 36C112.421 36 112.069 35.872 111.781 35.616C111.525 35.328 111.397 34.976 111.397 34.56V31.2C110.597 32.672 109.397 33.92 107.797 34.944C106.229 35.968 104.485 36.48 102.565 36.48C100.453 36.48 98.533 35.936 96.805 34.848C95.109 33.728 93.765 32.192 92.773 30.24C91.781 28.288 91.285 26.096 91.285 23.664C91.285 21.264 91.781 19.088 92.773 17.136C93.765 15.184 95.109 13.664 96.805 12.576C98.533 11.456 100.437 10.896 102.517 10.896C104.405 10.896 106.149 11.376 107.749 12.336C109.349 13.264 110.565 14.48 111.397 15.984V1.92C111.397 1.504 111.525 1.168 111.781 0.912C112.069 0.624 112.421 0.48 112.837 0.48ZM102.853 33.792C104.517 33.792 106.005 33.36 107.317 32.496C108.661 31.632 109.701 30.432 110.437 28.896C111.205 27.328 111.589 25.584 111.589 23.664C111.589 21.776 111.205 20.064 110.437 18.528C109.701 16.992 108.661 15.792 107.317 14.928C106.005 14.032 104.517 13.584 102.853 13.584C101.189 13.584 99.685 14.032 98.341 14.928C97.029 15.792 95.989 16.992 95.221 18.528C94.485 20.064 94.117 21.776 94.117 23.664C94.117 25.584 94.485 27.312 95.221 28.848C95.989 30.384 97.029 31.6 98.341 32.496C99.685 33.36 101.189 33.792 102.853 33.792ZM132.4 10.896C133.904 10.896 135.296 11.072 136.576 11.424C137.888 11.744 138.928 12.192 139.696 12.768C140.496 13.344 140.896 13.968 140.896 14.64C140.896 14.992 140.768 15.312 140.512 15.6C140.288 15.888 140 16.032 139.648 16.032C139.328 16.032 139.056 15.968 138.832 15.84C138.64 15.712 138.416 15.52 138.16 15.264C137.744 14.848 137.344 14.544 136.96 14.352C136.48 14.128 135.84 13.952 135.04 13.824C134.272 13.664 133.44 13.584 132.544 13.584C130.784 13.584 129.168 14.032 127.696 14.928C126.256 15.824 125.12 17.04 124.288 18.576C123.456 20.112 123.04 21.808 123.04 23.664C123.04 25.584 123.44 27.312 124.24 28.848C125.04 30.384 126.144 31.6 127.552 32.496C128.992 33.36 130.624 33.792 132.448 33.792C133.6 33.792 134.512 33.696 135.184 33.504C135.888 33.312 136.576 33.04 137.248 32.688C137.472 32.56 137.856 32.272 138.4 31.824C138.656 31.6 138.88 31.44 139.072 31.344C139.264 31.216 139.472 31.152 139.696 31.152C140.08 31.152 140.384 31.28 140.608 31.536C140.832 31.76 140.944 32.064 140.944 32.448C140.944 32.992 140.56 33.584 139.792 34.224C139.024 34.832 137.968 35.36 136.624 35.808C135.28 36.256 133.792 36.48 132.16 36.48C129.824 36.48 127.744 35.936 125.92 34.848C124.096 33.728 122.672 32.192 121.648 30.24C120.656 28.288 120.16 26.096 120.16 23.664C120.16 21.328 120.672 19.2 121.696 17.28C122.72 15.328 124.16 13.776 126.016 12.624C127.872 11.472 130 10.896 132.4 10.896ZM166.368 11.472C166.784 11.472 167.12 11.616 167.376 11.904C167.664 12.192 167.808 12.544 167.808 12.96V34.56C167.808 34.976 167.664 35.328 167.376 35.616C167.12 35.872 166.784 36 166.368 36C165.952 36 165.6 35.872 165.312 35.616C165.056 35.328 164.928 34.976 164.928 34.56V31.344C164.128 32.784 162.928 34 161.328 34.992C159.728 35.984 157.984 36.48 156.096 36.48C153.952 36.48 152.016 35.92 150.288 34.8C148.592 33.68 147.248 32.144 146.256 30.192C145.296 28.24 144.816 26.048 144.816 23.616C144.816 21.184 145.312 19.008 146.304 17.088C147.296 15.136 148.64 13.616 150.336 12.528C152.064 11.44 153.968 10.896 156.048 10.896C157.968 10.896 159.728 11.36 161.328 12.288C162.928 13.216 164.128 14.432 164.928 15.936V12.96C164.928 12.544 165.056 12.192 165.312 11.904C165.6 11.616 165.952 11.472 166.368 11.472ZM156.384 33.792C158.048 33.792 159.536 33.36 160.848 32.496C162.192 31.6 163.232 30.384 163.968 28.848C164.736 27.28 165.12 25.536 165.12 23.616C165.12 21.76 164.736 20.064 163.968 18.528C163.232 16.992 162.192 15.792 160.848 14.928C159.536 14.032 158.048 13.584 156.384 13.584C154.72 13.584 153.216 14.016 151.872 14.88C150.56 15.744 149.52 16.944 148.752 18.48C148.016 19.984 147.648 21.696 147.648 23.616C147.648 25.536 148.016 27.28 148.752 28.848C149.488 30.384 150.512 31.6 151.824 32.496C153.168 33.36 154.688 33.792 156.384 33.792ZM203.163 11.28C206.043 11.28 208.155 12.176 209.499 13.968C210.875 15.728 211.563 18.064 211.563 20.976V34.56C211.563 34.976 211.419 35.328 211.131 35.616C210.875 35.872 210.539 36 210.123 36C209.707 36 209.355 35.872 209.067 35.616C208.811 35.328 208.683 34.976 208.683 34.56V21.12C208.683 19.008 208.171 17.296 207.147 15.984C206.155 14.64 204.603 13.968 202.491 13.968C201.147 13.968 199.867 14.288 198.651 14.928C197.467 15.568 196.507 16.448 195.771 17.568C195.035 18.656 194.667 19.84 194.667 21.12V34.56C194.667 34.976 194.523 35.328 194.235 35.616C193.979 35.872 193.643 36 193.227 36C192.811 36 192.459 35.872 192.171 35.616C191.915 35.328 191.787 34.976 191.787 34.56V20.976C191.787 18.896 191.307 17.216 190.347 15.936C189.387 14.624 187.883 13.968 185.835 13.968C184.523 13.968 183.275 14.288 182.091 14.928C180.939 15.568 179.995 16.432 179.259 17.52C178.555 18.576 178.203 19.728 178.203 20.976V34.56C178.203 34.976 178.059 35.328 177.771 35.616C177.515 35.872 177.179 36 176.763 36C176.347 36 175.995 35.872 175.707 35.616C175.451 35.328 175.323 34.976 175.323 34.56V13.056C175.323 12.64 175.451 12.304 175.707 12.048C175.995 11.76 176.347 11.616 176.763 11.616C177.179 11.616 177.515 11.76 177.771 12.048C178.059 12.304 178.203 12.64 178.203 13.056V15.84C179.067 14.528 180.235 13.44 181.707 12.576C183.179 11.712 184.731 11.28 186.363 11.28C188.219 11.28 189.819 11.728 191.163 12.624C192.507 13.52 193.467 14.832 194.043 16.56C194.715 15.152 195.947 13.92 197.739 12.864C199.531 11.808 201.339 11.28 203.163 11.28Z" fill="#2A344A"/>
</svg>
